<svg width="782" height="616" viewBox="0 0 782 616" fill="none" xmlns="http://www.w3.org/2000/svg">
<path d="M314.312 157.615C317.066 156.068 450.09 156.691 461.682 157.458C472.131 158.168 482.48 159.951 492.564 162.781C547.08 178.088 571.209 228.439 556.014 282.06C543.976 324.54 506.342 349.019 463.703 353.654C496.93 374.142 514.746 401.219 534.427 433.875C592.52 410.504 674.704 382.641 737.143 406.123C774.243 420.074 791.893 462.242 775.203 498.859C749.863 554.462 680.073 561.842 629.207 538.625C612.35 530.803 597.207 519.723 584.651 506.023C592.274 510.236 599.395 517.683 607.491 522.532C640.014 542.267 676.873 549.707 713.563 541.277C751.903 532.468 784.804 492.062 772.464 452.821C751.144 384.973 649.063 402.266 597.736 418.58C577.884 424.89 556.118 431.491 537.951 439.302C545.949 454.081 555.02 469.505 563.644 484.127C589.87 528.592 624.23 581.271 676.203 597.207C695.033 602.982 716.203 602.668 733.783 593.119C740.303 589.577 744.964 584.933 750.674 580.514C740.824 595.469 726.223 605.179 708.603 608.068C608.621 624.455 546.137 524.82 503.285 454.028C481.097 463.706 459.096 473.807 437.294 484.325C334.173 534.923 183.892 616.355 68.0448 615.254L68.035 613.317C81.1489 612.893 101.065 609.873 113.955 607.32C196.204 591.024 277.517 554.183 352.693 517.737C371.186 508.928 389.618 499.991 407.989 490.929C383.591 490.306 358.904 491.114 334.488 490.813C329.723 490.754 323.882 491.276 319.31 490.409C318.16 489.106 318.497 489.858 318.383 488.03C323.595 482.725 351.751 492.239 353.665 462.69C354.511 449.642 354.527 434.677 354.525 421.3L354.473 349.357C351.008 349.418 347.801 349.77 344.361 350.1C344.052 375.07 337.117 399.509 324.267 420.92C292.878 473.092 238.832 497.997 179.636 500.82C136.355 502.884 95.8972 495.484 58.4872 472.793C50.2832 476.815 39.8412 483.196 31.9042 487.869L30.9589 486.913C39.6348 481.831 47.9754 476.475 56.5614 471.299C28.0445 450.481 7.21847 425.394 1.43738 389.384C-3.42562 358.647 4.16139 327.239 22.5204 302.112C39.9874 278.412 66.1207 262.581 95.2157 258.076C117.199 254.682 135.113 257.133 154.149 268.431C149.445 267.226 144.726 265.786 140.01 264.721C82.6026 251.755 29.9199 287.923 16.1239 343.562C9.29498 372.005 14.093 401.998 29.455 426.891C39.3679 443.114 51.0847 454.376 66.5477 465.183C92.1166 448.588 120.896 431.719 148.404 417.303C232.204 373.388 332.435 324.56 429.82 341.551C453.211 345.632 460.001 352.025 483.221 336.762C526.182 308.523 533.812 239.766 507.341 198.2C490.052 172.46 461.796 164.16 432.46 164.583C414.284 164.844 395.091 162.319 394.299 187.358C392.784 235.261 394.193 284.854 393.682 332.735C381.474 332.591 366.648 332.674 354.559 334.699L354.482 235.113C354.482 218.463 355.085 200.865 353.607 184.284C353.149 179.143 349.662 172.632 346.093 169.051C338.081 158.828 318.424 164.058 314.221 158.926L314.312 157.615ZM309.538 356.871C244.171 374.121 185.066 404.343 125.405 435.453C106.839 445.134 86.7767 457.197 68.5077 466.288C76.0596 471.022 81.7224 474.097 89.9432 477.769C134.703 497.045 182.755 499.571 228.669 481.888C276.921 463.305 313.775 417.913 311.691 364.791C311.609 362.702 311.819 358.672 310.736 357.023L309.538 356.871ZM393.688 422.725C393.68 436.355 392.489 451.274 394.72 464.679C395.603 469.989 397.019 474.906 400.88 478.876C404.848 482.957 410.872 485.611 416.591 485.501C422.979 485.378 465.797 463.443 475.073 459.249C482.637 455.821 492.944 451.744 499.984 448.242C473.676 404.553 448.473 359.298 393.778 349.817L393.688 422.725Z" fill="#F0EBFA"></path>
<path d="M225.137 0.101462C242.169 -0.727538 267.728 3.64346 283.745 8.82946C299.348 13.8815 307.015 17.9495 323.804 19.5235C324.849 36.2025 324.677 74.0525 319.097 89.5235C314.137 103.272 305.556 110.555 292.619 116.443C296.736 112.813 301.563 108.911 304.49 104.294C322.08 76.5385 302.264 39.4275 277.792 23.6205C234.463 -4.36754 169.595 7.17547 140.921 50.5035C120.579 80.9565 121.811 122.093 147.581 149.108C166.924 169.387 193.805 183.57 217.711 197.896C235.732 208.696 253.431 219.001 271.109 230.43C276.439 234.081 281.713 237.812 286.929 241.623C321.509 267.25 337.401 294.473 343.697 336.875C330.72 338.785 322.056 340.711 309.246 343.927C283.02 243.352 96.4752 236.72 90.4832 119.699C88.6002 82.9065 108.375 48.9145 137.831 27.8905C164.313 8.98947 193.043 1.58646 225.137 0.101462Z" fill="#F0EBFA"></path>
</svg>