<svg width="782" height="690" viewBox="0 0 782 690" fill="none" xmlns="http://www.w3.org/2000/svg">
<path d="M314.312 157.615C317.066 156.068 450.09 156.691 461.682 157.458C472.131 158.168 482.48 159.951 492.564 162.781C547.08 178.088 571.209 228.439 556.014 282.06C543.976 324.54 506.342 349.019 463.703 353.654C496.93 374.142 514.746 401.219 534.427 433.875C592.52 410.504 674.704 382.641 737.143 406.123C774.243 420.074 791.893 462.242 775.203 498.859C749.863 554.462 680.073 561.842 629.207 538.625C612.35 530.803 597.207 519.723 584.651 506.023C592.274 510.236 599.395 517.683 607.491 522.532C640.014 542.267 676.873 549.707 713.563 541.277C751.903 532.469 784.804 492.062 772.464 452.821C751.144 384.973 649.063 402.266 597.736 418.58C577.884 424.89 556.118 431.491 537.951 439.302C545.949 454.081 555.021 469.505 563.644 484.127C589.87 528.592 624.23 581.271 676.203 597.207C695.033 602.982 716.203 602.668 733.783 593.119C740.303 589.577 744.964 584.933 750.674 580.514C740.824 595.469 726.223 605.179 708.603 608.068C608.621 624.455 546.137 524.82 503.285 454.029C481.097 463.706 459.096 473.807 437.294 484.325C334.173 534.923 183.892 616.355 68.0448 615.254L68.035 613.317C81.1489 612.893 101.065 609.872 113.955 607.32C196.204 591.024 277.517 554.183 352.693 517.737C371.186 508.928 389.618 499.991 407.989 490.929C383.591 490.306 358.904 491.114 334.488 490.813C329.723 490.754 323.882 491.276 319.31 490.409C318.16 489.106 318.497 489.858 318.383 488.03C323.595 482.725 351.751 492.239 353.665 462.69C354.511 449.642 354.527 434.677 354.525 421.3L354.473 349.357C351.008 349.418 347.801 349.77 344.361 350.1C344.052 375.07 337.117 399.509 324.267 420.92C292.878 473.092 238.832 497.997 179.636 500.82C136.355 502.884 95.8972 495.484 58.4872 472.793C50.2832 476.815 39.8412 483.196 31.9042 487.869L30.9589 486.913C39.6348 481.831 47.9754 476.475 56.5614 471.299C28.0445 450.481 7.21847 425.394 1.43738 389.384C-3.42562 358.647 4.16139 327.239 22.5204 302.112C39.9874 278.412 66.1207 262.581 95.2157 258.076C117.199 254.682 135.113 257.133 154.149 268.431C149.445 267.226 144.727 265.786 140.01 264.721C82.6026 251.755 29.9199 287.923 16.1239 343.562C9.29498 372.005 14.093 401.998 29.455 426.891C39.3679 443.114 51.0848 454.376 66.5477 465.183C92.1166 448.588 120.896 431.719 148.404 417.303C232.204 373.388 332.435 324.56 429.82 341.551C453.211 345.632 460.001 352.025 483.221 336.762C526.182 308.523 533.812 239.766 507.341 198.2C490.052 172.46 461.796 164.16 432.46 164.583C414.284 164.844 395.091 162.319 394.299 187.358C392.784 235.261 394.193 284.854 393.682 332.735C381.474 332.591 366.648 332.674 354.559 334.699L354.482 235.113C354.482 218.463 355.085 200.865 353.607 184.284C353.149 179.143 349.662 172.632 346.093 169.051C338.081 158.828 318.424 164.058 314.221 158.926L314.312 157.615ZM309.538 356.871C244.171 374.121 185.066 404.343 125.405 435.453C106.839 445.134 86.7767 457.197 68.5077 466.288C76.0596 471.022 81.7224 474.097 89.9432 477.769C134.703 497.045 182.755 499.571 228.669 481.888C276.921 463.305 313.775 417.913 311.691 364.791C311.609 362.702 311.819 358.672 310.736 357.023L309.538 356.871ZM393.688 422.725C393.68 436.355 392.489 451.274 394.72 464.679C395.603 469.989 397.019 474.906 400.88 478.876C404.848 482.957 410.872 485.611 416.591 485.501C422.979 485.378 465.797 463.443 475.073 459.249C482.637 455.821 492.944 451.744 499.984 448.242C473.676 404.553 448.473 359.298 393.778 349.817L393.688 422.725Z" fill="#F0EBFA"></path>
<path d="M225.137 0.101462C242.169 -0.727538 267.728 3.64346 283.745 8.82946C299.348 13.8815 307.015 17.9495 323.804 19.5235C324.849 36.2025 324.677 74.0525 319.097 89.5235C314.137 103.272 305.556 110.555 292.619 116.443C296.736 112.813 301.563 108.911 304.49 104.294C322.08 76.5385 302.264 39.4275 277.792 23.6205C234.463 -4.36754 169.595 7.17547 140.921 50.5035C120.579 80.9565 121.811 122.093 147.581 149.108C166.924 169.387 193.805 183.57 217.711 197.896C235.732 208.696 253.431 219.001 271.109 230.43C276.439 234.081 281.713 237.812 286.929 241.623C321.509 267.25 337.401 294.473 343.697 336.875C330.72 338.785 322.056 340.711 309.246 343.927C283.02 243.352 96.4752 236.72 90.4832 119.699C88.6002 82.9065 108.375 48.9145 137.831 27.8905C164.313 8.98947 193.043 1.58646 225.137 0.101462Z" fill="#F0EBFA"></path>
<path d="M676.163 689.201C675.1 689.201 674.11 688.963 673.193 688.486C672.277 688.046 671.543 687.405 670.993 686.561C670.443 685.718 670.168 684.746 670.168 683.646C670.168 683.426 670.333 683.096 670.663 682.656C670.993 682.18 671.268 681.941 671.488 681.941C671.598 681.941 671.855 682.015 672.258 682.161C672.698 682.271 673.193 682.418 673.743 682.601C674.293 682.785 674.917 682.968 675.613 683.151C676.31 683.298 676.988 683.371 677.648 683.371C678.382 683.371 679.023 683.206 679.573 682.876C680.123 682.51 680.618 681.923 681.058 681.116C681.168 680.933 681.26 680.75 681.333 680.566C681.443 680.346 681.498 680.108 681.498 679.851C681.498 679.558 681.425 679.265 681.278 678.971C681.168 678.678 681.022 678.348 680.838 677.981L670.553 657.301C670.04 656.165 669.453 655.211 668.793 654.441C668.133 653.671 667.235 653.176 666.098 652.956C665.658 652.883 665.292 652.755 664.998 652.571C664.742 652.351 664.613 652.095 664.613 651.801C664.613 651.545 664.742 651.361 664.998 651.251C665.255 651.105 665.567 651.031 665.933 651.031C666.593 651.031 667.363 651.05 668.243 651.086C669.123 651.123 670.003 651.16 670.883 651.196C671.8 651.233 672.643 651.251 673.413 651.251C674.073 651.251 674.825 651.233 675.668 651.196C676.548 651.16 677.41 651.123 678.253 651.086C679.097 651.05 679.83 651.031 680.453 651.031C680.82 651.031 681.168 651.105 681.498 651.251C681.828 651.361 681.993 651.545 681.993 651.801C681.993 652.095 681.828 652.333 681.498 652.516C681.168 652.663 680.783 652.81 680.343 652.956C679.61 653.103 678.987 653.323 678.473 653.616C677.96 653.873 677.703 654.35 677.703 655.046C677.703 655.34 677.795 655.725 677.978 656.201C678.162 656.678 678.382 657.191 678.638 657.741L685.458 670.886C685.568 671.18 685.66 671.418 685.733 671.601C685.843 671.748 685.935 671.821 686.008 671.821C686.228 671.821 686.467 671.491 686.723 670.831L691.343 659.061C691.673 658.181 691.912 657.485 692.058 656.971C692.205 656.421 692.278 655.945 692.278 655.541C692.278 654.881 691.948 654.35 691.288 653.946C690.665 653.506 689.932 653.195 689.088 653.011C688.722 652.938 688.337 652.81 687.933 652.626C687.567 652.406 687.383 652.15 687.383 651.856C687.383 651.636 687.53 651.471 687.823 651.361C688.153 651.215 688.538 651.141 688.978 651.141C690.005 651.141 690.885 651.178 691.618 651.251C692.388 651.288 693.122 651.306 693.818 651.306C694.882 651.306 695.872 651.27 696.788 651.196C697.705 651.086 698.603 651.031 699.483 651.031C699.923 651.031 700.308 651.086 700.638 651.196C700.968 651.306 701.133 651.508 701.133 651.801C701.133 652.131 700.968 652.37 700.638 652.516C700.345 652.663 699.978 652.791 699.538 652.901C698.512 653.158 697.65 653.635 696.953 654.331C696.293 655.028 695.78 655.835 695.413 656.751L688.373 672.701C686.577 676.771 684.982 680.016 683.588 682.436C682.195 684.856 680.912 686.58 679.738 687.606C678.565 688.67 677.373 689.201 676.163 689.201Z" fill="#F0EBFA"></path>
<path d="M614.321 687.99C613.075 687.99 611.901 687.844 610.801 687.55C609.701 687.257 608.95 686.945 608.546 686.615C608.4 686.505 608.271 686.377 608.161 686.23C608.015 686.084 607.941 685.937 607.941 685.79C607.941 685.57 608.033 685.387 608.216 685.24C608.363 685.057 608.546 684.965 608.766 684.965C610.013 684.892 611.15 684.47 612.176 683.7C613.203 682.894 614.156 681.885 615.036 680.675C615.916 679.465 616.741 678.182 617.511 676.825C618.281 675.542 619.033 674.277 619.766 673.03C620.536 671.747 621.325 670.61 622.131 669.62C622.938 668.594 623.8 667.805 624.716 667.255C624.936 667.109 625.028 666.962 624.991 666.815C624.955 666.669 624.845 666.485 624.661 666.265C624.295 665.862 623.928 665.385 623.561 664.835C623.231 664.249 622.883 663.515 622.516 662.635L620.976 658.95C620.5 657.777 619.968 657.025 619.381 656.695C618.795 656.329 618.19 656.145 617.566 656.145C617.016 656.145 616.338 656.347 615.531 656.75C614.761 657.154 614.065 657.355 613.441 657.355C612.708 657.355 612.103 656.989 611.626 656.255C611.15 655.522 610.911 654.734 610.911 653.89C610.911 652.974 611.168 652.185 611.681 651.525C612.231 650.829 613.203 650.48 614.596 650.48C616.1 650.48 617.346 650.774 618.336 651.36C619.363 651.91 620.188 652.662 620.811 653.615C621.471 654.532 622.058 655.577 622.571 656.75L624.716 661.645C625.523 663.332 626.385 664.689 627.301 665.715C628.255 666.742 629.501 667.274 631.041 667.31H632.526C632.71 667.31 632.838 667.255 632.911 667.145C632.985 666.999 633.021 666.76 633.021 666.43V656.585C633.021 655.339 632.765 654.495 632.251 654.055C631.775 653.579 630.821 653.194 629.391 652.9C628.438 652.717 627.961 652.332 627.961 651.745C627.961 651.525 628.09 651.36 628.346 651.25C628.603 651.104 628.896 651.03 629.226 651.03C630.143 651.03 631.023 651.049 631.866 651.085C632.71 651.122 633.516 651.159 634.286 651.195C635.093 651.232 635.881 651.25 636.651 651.25C637.421 651.25 638.21 651.232 639.016 651.195C639.823 651.159 640.648 651.122 641.491 651.085C642.335 651.049 643.196 651.03 644.076 651.03C644.443 651.03 644.736 651.104 644.956 651.25C645.176 651.36 645.286 651.544 645.286 651.8C645.286 652.094 645.158 652.332 644.901 652.515C644.681 652.662 644.333 652.79 643.856 652.9C642.426 653.267 641.455 653.689 640.941 654.165C640.428 654.605 640.171 655.412 640.171 656.585V666.43C640.171 666.76 640.208 666.999 640.281 667.145C640.355 667.255 640.483 667.31 640.666 667.31H642.151C643.691 667.274 644.938 666.76 645.891 665.77C646.845 664.744 647.688 663.369 648.421 661.645L650.511 656.75C651.245 654.99 652.216 653.505 653.426 652.295C654.636 651.085 656.396 650.48 658.706 650.48C660.1 650.48 661.035 650.829 661.511 651.525C661.988 652.185 662.226 652.974 662.226 653.89C662.226 654.734 661.988 655.522 661.511 656.255C661.071 656.989 660.466 657.355 659.696 657.355C659.073 657.355 658.376 657.154 657.606 656.75C656.836 656.347 656.176 656.145 655.626 656.145C655.04 656.145 654.435 656.329 653.811 656.695C653.188 657.025 652.656 657.777 652.216 658.95L650.676 662.635C650.31 663.515 649.98 664.194 649.686 664.67C649.393 665.147 649.063 665.605 648.696 666.045C648.33 666.485 648.311 666.815 648.641 667.035C649.485 667.549 650.291 668.3 651.061 669.29C651.831 670.28 652.583 671.399 653.316 672.645C654.086 673.855 654.838 675.084 655.571 676.33C656.451 677.797 657.331 679.19 658.211 680.51C659.128 681.83 660.1 682.912 661.126 683.755C662.153 684.562 663.253 684.965 664.426 684.965C664.646 684.965 664.83 685.057 664.976 685.24C665.123 685.387 665.196 685.57 665.196 685.79C665.196 685.937 665.141 686.084 665.031 686.23C664.921 686.377 664.793 686.505 664.646 686.615C664.243 686.945 663.491 687.257 662.391 687.55C661.291 687.844 660.118 687.99 658.871 687.99C657.661 687.99 656.543 687.697 655.516 687.11C654.526 686.56 653.61 685.827 652.766 684.91C651.96 683.957 651.19 682.912 650.456 681.775C649.76 680.639 649.1 679.484 648.476 678.31C647.486 676.477 646.588 674.79 645.781 673.25C644.975 671.71 644.168 670.757 643.361 670.39C643.178 670.207 642.995 670.042 642.811 669.895C642.628 669.749 642.371 669.639 642.041 669.565C641.748 669.492 641.271 669.455 640.611 669.455C640.428 669.455 640.3 669.547 640.226 669.73C640.153 669.877 640.116 670.079 640.116 670.335L640.226 681.61C640.226 682.344 640.336 682.949 640.556 683.425C640.813 683.902 641.198 684.287 641.711 684.58C642.225 684.874 642.958 685.149 643.911 685.405C644.351 685.515 644.718 685.644 645.011 685.79C645.305 685.937 645.451 686.157 645.451 686.45C645.451 686.707 645.286 686.89 644.956 687C644.663 687.147 644.315 687.22 643.911 687.22C642.811 687.22 641.858 687.184 641.051 687.11C640.281 687.074 639.548 687.037 638.851 687C638.191 686.927 637.458 686.89 636.651 686.89C635.845 686.89 635.093 686.927 634.396 687C633.736 687.037 633.003 687.092 632.196 687.165C631.39 687.275 630.418 687.33 629.281 687.33C628.878 687.33 628.511 687.239 628.181 687.055C627.851 686.909 627.686 686.725 627.686 686.505C627.686 685.955 628.218 685.589 629.281 685.405C630.675 685.112 631.646 684.709 632.196 684.195C632.746 683.682 633.021 682.82 633.021 681.61V670.335C633.021 670.079 632.985 669.877 632.911 669.73C632.838 669.547 632.71 669.455 632.526 669.455C631.903 669.455 631.426 669.492 631.096 669.565C630.803 669.639 630.565 669.749 630.381 669.895C630.235 670.042 630.033 670.207 629.776 670.39C629.19 670.647 628.585 671.215 627.961 672.095C627.375 672.939 626.751 673.984 626.091 675.23C625.431 676.44 624.735 677.705 624.001 679.025C623.195 680.492 622.296 681.922 621.306 683.315C620.353 684.672 619.308 685.79 618.171 686.67C617.035 687.55 615.751 687.99 614.321 687.99Z" fill="#F0EBFA"></path>
<path d="M570.653 687.274C570.213 687.274 569.847 687.201 569.553 687.054C569.26 686.944 569.113 686.743 569.113 686.449C569.113 686.119 569.242 685.863 569.498 685.679C569.792 685.496 570.158 685.331 570.598 685.184C571.662 684.891 572.578 684.451 573.348 683.864C574.155 683.241 574.797 682.398 575.273 681.334C576.19 679.171 577.07 677.099 577.913 675.119C578.757 673.103 579.563 671.104 580.333 669.124C581.103 667.144 581.873 665.128 582.643 663.074C583.45 661.021 584.257 658.858 585.063 656.584C585.467 655.448 585.742 654.568 585.888 653.944C586.035 653.321 586.163 652.863 586.273 652.569C586.823 652.423 587.337 652.276 587.813 652.129C588.29 651.983 588.822 651.799 589.408 651.579C589.922 651.323 590.362 650.993 590.728 650.589C591.095 650.186 591.37 649.874 591.553 649.654C591.663 649.581 591.773 649.544 591.883 649.544C591.993 649.508 592.103 649.581 592.213 649.764C592.323 649.984 592.415 650.204 592.488 650.424C592.562 650.644 592.635 650.883 592.708 651.139C593.515 653.743 594.34 656.383 595.183 659.059C596.063 661.699 596.925 664.321 597.768 666.924C598.612 669.491 599.418 671.966 600.188 674.349C600.995 676.696 601.728 678.859 602.388 680.839C602.718 681.829 603.122 682.618 603.598 683.204C604.112 683.791 604.662 684.249 605.248 684.579C605.872 684.873 606.55 685.111 607.283 685.294C607.76 685.404 608.127 685.551 608.383 685.734C608.64 685.918 608.768 686.174 608.768 686.504C608.768 686.724 608.64 686.889 608.383 686.999C608.163 687.109 607.87 687.164 607.503 687.164C606.843 687.164 606 687.146 604.973 687.109C603.983 687.073 602.957 687.036 601.893 686.999C600.83 686.926 599.877 686.889 599.033 686.889C598.3 686.889 597.475 686.908 596.558 686.944C595.678 686.981 594.78 687.018 593.863 687.054C592.983 687.091 592.232 687.109 591.608 687.109C591.242 687.109 590.912 687.054 590.618 686.944C590.362 686.798 590.233 686.596 590.233 686.339C590.233 686.046 590.38 685.808 590.673 685.624C590.967 685.404 591.315 685.258 591.718 685.184C593.038 684.964 593.992 684.634 594.578 684.194C595.165 683.718 595.385 683.039 595.238 682.159C595.128 681.536 594.963 680.803 594.743 679.959C594.523 679.079 594.285 678.181 594.028 677.264C593.808 676.311 593.57 675.449 593.313 674.679C593.24 674.386 593.13 674.184 592.983 674.074C592.837 673.928 592.562 673.854 592.158 673.854H582.258C582.002 673.854 581.8 673.946 581.653 674.129C581.507 674.276 581.397 674.514 581.323 674.844C581.177 675.321 580.993 675.871 580.773 676.494C580.59 677.081 580.388 677.704 580.168 678.364C579.985 678.988 579.802 679.574 579.618 680.124C579.472 680.674 579.362 681.151 579.288 681.554C579.105 682.544 579.27 683.333 579.783 683.919C580.333 684.469 581.268 684.909 582.588 685.239C583.578 685.496 584.073 685.881 584.073 686.394C584.073 686.614 583.945 686.798 583.688 686.944C583.468 687.054 583.138 687.109 582.698 687.109C581.855 687.109 580.975 687.073 580.058 686.999C579.142 686.963 578.133 686.944 577.033 686.944C575.933 686.944 574.852 686.999 573.788 687.109C572.762 687.219 571.717 687.274 570.653 687.274ZM583.743 671.324H591.388C591.902 671.324 592.158 671.214 592.158 670.994C592.158 670.884 592.14 670.793 592.103 670.719C592.103 670.646 592.085 670.536 592.048 670.389L588.198 657.684C588.052 657.171 587.923 656.914 587.813 656.914C587.74 656.914 587.612 657.153 587.428 657.629L582.808 670.389C582.735 670.573 582.698 670.719 582.698 670.829C582.698 671.013 582.79 671.141 582.973 671.214C583.193 671.288 583.45 671.324 583.743 671.324Z" fill="#F0EBFA"></path>
<path d="M552.936 687.77C550.186 687.77 547.583 687.349 545.126 686.505C542.67 685.625 540.488 684.379 538.581 682.765C536.711 681.152 535.226 679.227 534.126 676.99C533.063 674.717 532.531 672.205 532.531 669.455C532.531 666.889 533.063 664.469 534.126 662.195C535.19 659.922 536.693 657.905 538.636 656.145C540.58 654.385 542.89 653.01 545.566 652.02C548.28 650.994 551.25 650.48 554.476 650.48C555.723 650.48 556.896 650.572 557.996 650.755C559.133 650.902 560.233 651.104 561.296 651.36C562.36 651.58 563.405 651.874 564.431 652.24C564.835 652.387 565.146 652.589 565.366 652.845C565.623 653.102 565.77 653.45 565.806 653.89C565.953 654.99 566.063 656.09 566.136 657.19C566.21 658.254 566.246 659.317 566.246 660.38C566.283 660.747 566.155 661.022 565.861 661.205C565.568 661.352 565.256 661.37 564.926 661.26C564.596 661.114 564.358 660.839 564.211 660.435C563.918 659.409 563.57 658.455 563.166 657.575C562.8 656.659 562.231 655.889 561.461 655.265C560.618 654.569 559.555 654.019 558.271 653.615C556.988 653.175 555.485 652.955 553.761 652.955C551.781 652.955 549.985 653.359 548.371 654.165C546.758 654.972 545.365 656.09 544.191 657.52C543.055 658.95 542.175 660.564 541.551 662.36C540.928 664.157 540.616 666.045 540.616 668.025C540.616 670.372 540.891 672.59 541.441 674.68C542.028 676.77 542.89 678.622 544.026 680.235C545.2 681.812 546.611 683.059 548.261 683.975C549.911 684.855 551.8 685.295 553.926 685.295C556.64 685.295 558.84 684.709 560.526 683.535C562.213 682.362 563.643 680.62 564.816 678.31C565.11 677.724 565.513 677.449 566.026 677.485C566.54 677.485 566.796 677.779 566.796 678.365C566.796 678.805 566.741 679.355 566.631 680.015C566.521 680.675 566.356 681.39 566.136 682.16C565.953 682.894 565.733 683.627 565.476 684.36C565.33 684.8 565.146 685.13 564.926 685.35C564.706 685.57 564.376 685.772 563.936 685.955C562.543 686.542 560.893 686.982 558.986 687.275C557.116 687.605 555.1 687.77 552.936 687.77Z" fill="#F0EBFA"></path>
<path d="M494.224 687.274C493.784 687.274 493.417 687.201 493.124 687.054C492.83 686.944 492.684 686.743 492.684 686.449C492.684 686.119 492.812 685.863 493.069 685.679C493.362 685.496 493.729 685.331 494.169 685.184C495.232 684.891 496.149 684.451 496.919 683.864C497.725 683.241 498.367 682.398 498.844 681.334C499.76 679.171 500.64 677.099 501.484 675.119C502.327 673.103 503.134 671.104 503.904 669.124C504.674 667.144 505.444 665.128 506.214 663.074C507.02 661.021 507.827 658.858 508.634 656.584C509.037 655.448 509.312 654.568 509.459 653.944C509.605 653.321 509.734 652.863 509.844 652.569C510.394 652.423 510.907 652.276 511.384 652.129C511.86 651.983 512.392 651.799 512.979 651.579C513.492 651.323 513.932 650.993 514.299 650.589C514.665 650.186 514.94 649.874 515.124 649.654C515.234 649.581 515.344 649.544 515.454 649.544C515.564 649.508 515.674 649.581 515.784 649.764C515.894 649.984 515.985 650.204 516.059 650.424C516.132 650.644 516.205 650.883 516.279 651.139C517.085 653.743 517.91 656.383 518.754 659.059C519.634 661.699 520.495 664.321 521.339 666.924C522.182 669.491 522.989 671.966 523.759 674.349C524.565 676.696 525.299 678.859 525.959 680.839C526.289 681.829 526.692 682.618 527.169 683.204C527.682 683.791 528.232 684.249 528.819 684.579C529.442 684.873 530.12 685.111 530.854 685.294C531.33 685.404 531.697 685.551 531.954 685.734C532.21 685.918 532.339 686.174 532.339 686.504C532.339 686.724 532.21 686.889 531.954 686.999C531.734 687.109 531.44 687.164 531.074 687.164C530.414 687.164 529.57 687.146 528.544 687.109C527.554 687.073 526.527 687.036 525.464 686.999C524.4 686.926 523.447 686.889 522.604 686.889C521.87 686.889 521.045 686.908 520.129 686.944C519.249 686.981 518.35 687.018 517.434 687.054C516.554 687.091 515.802 687.109 515.179 687.109C514.812 687.109 514.482 687.054 514.189 686.944C513.932 686.798 513.804 686.596 513.804 686.339C513.804 686.046 513.95 685.808 514.244 685.624C514.537 685.404 514.885 685.258 515.289 685.184C516.609 684.964 517.562 684.634 518.149 684.194C518.735 683.718 518.955 683.039 518.809 682.159C518.699 681.536 518.534 680.803 518.314 679.959C518.094 679.079 517.855 678.181 517.599 677.264C517.379 676.311 517.14 675.449 516.884 674.679C516.81 674.386 516.7 674.184 516.554 674.074C516.407 673.928 516.132 673.854 515.729 673.854H505.829C505.572 673.854 505.37 673.946 505.224 674.129C505.077 674.276 504.967 674.514 504.894 674.844C504.747 675.321 504.564 675.871 504.344 676.494C504.16 677.081 503.959 677.704 503.739 678.364C503.555 678.988 503.372 679.574 503.189 680.124C503.042 680.674 502.932 681.151 502.859 681.554C502.675 682.544 502.84 683.333 503.354 683.919C503.904 684.469 504.839 684.909 506.159 685.239C507.149 685.496 507.644 685.881 507.644 686.394C507.644 686.614 507.515 686.798 507.259 686.944C507.039 687.054 506.709 687.109 506.269 687.109C505.425 687.109 504.545 687.073 503.629 686.999C502.712 686.963 501.704 686.944 500.604 686.944C499.504 686.944 498.422 686.999 497.359 687.109C496.332 687.219 495.287 687.274 494.224 687.274ZM507.314 671.324H514.959C515.472 671.324 515.729 671.214 515.729 670.994C515.729 670.884 515.71 670.793 515.674 670.719C515.674 670.646 515.655 670.536 515.619 670.389L511.769 657.684C511.622 657.171 511.494 656.914 511.384 656.914C511.31 656.914 511.182 657.153 510.999 657.629L506.379 670.389C506.305 670.573 506.269 670.719 506.269 670.829C506.269 671.013 506.36 671.141 506.544 671.214C506.764 671.288 507.02 671.324 507.314 671.324Z" fill="#F0EBFA"></path>
<path d="M445.213 687.218C444.773 687.218 444.425 687.145 444.168 686.998C443.948 686.888 443.838 686.723 443.838 686.503C443.838 686.21 443.985 686.008 444.278 685.898C444.608 685.752 444.993 685.623 445.433 685.513C446.313 685.257 447.065 684.762 447.688 684.028C448.311 683.295 448.696 682.342 448.843 681.168C449.136 678.932 449.411 676.493 449.668 673.853C449.961 671.213 450.218 668.555 450.438 665.878C450.695 663.202 450.896 660.69 451.043 658.343C451.043 658.087 451.043 657.793 451.043 657.463C451.043 657.133 451.043 656.803 451.043 656.473C451.006 655.923 450.896 655.483 450.713 655.153C450.566 654.787 450.291 654.457 449.888 654.163C449.375 653.797 448.843 653.522 448.293 653.338C447.743 653.118 447.12 652.935 446.423 652.788C446.02 652.715 445.69 652.587 445.433 652.403C445.213 652.183 445.103 651.927 445.103 651.633C445.103 651.34 445.25 651.138 445.543 651.028C445.836 650.918 446.221 650.863 446.698 650.863C447.175 650.863 447.816 650.882 448.623 650.918C449.43 650.955 450.291 651.01 451.208 651.083C452.161 651.12 453.096 651.157 454.013 651.193C454.93 651.23 455.736 651.248 456.433 651.248C456.726 651.248 456.983 651.34 457.203 651.523C457.423 651.707 457.57 651.927 457.643 652.183C457.863 652.88 458.083 653.558 458.303 654.218C458.523 654.878 458.761 655.575 459.018 656.308L467.268 676.493C467.378 676.677 467.525 676.787 467.708 676.823C467.891 676.823 468.02 676.732 468.093 676.548L476.948 656.858C477.205 655.795 477.406 654.86 477.553 654.053C477.736 653.247 477.901 652.605 478.048 652.128C478.158 651.652 478.396 651.413 478.763 651.413H481.018C482.411 651.34 483.878 651.23 485.418 651.083C486.958 650.937 488.15 650.863 488.993 650.863C489.286 650.863 489.561 650.918 489.818 651.028C490.111 651.102 490.258 651.285 490.258 651.578C490.258 651.872 490.148 652.092 489.928 652.238C489.708 652.385 489.378 652.55 488.938 652.733C488.645 652.807 488.296 652.935 487.893 653.118C487.49 653.265 487.141 653.412 486.848 653.558C486.078 653.888 485.491 654.31 485.088 654.823C484.721 655.337 484.556 656.07 484.593 657.023C484.63 659.627 484.703 661.973 484.813 664.063C484.923 666.117 485.015 668.06 485.088 669.893C485.198 671.69 485.326 673.542 485.473 675.448C485.62 677.318 485.748 679.39 485.858 681.663C485.931 682.69 486.316 683.497 487.013 684.083C487.746 684.67 488.718 685.11 489.928 685.403C490.368 685.513 490.716 685.642 490.973 685.788C491.266 685.935 491.413 686.155 491.413 686.448C491.413 686.705 491.285 686.888 491.028 686.998C490.808 687.108 490.496 687.163 490.093 687.163C489.25 687.163 488.37 687.145 487.453 687.108C486.536 687.072 485.638 687.035 484.758 686.998C483.915 686.962 483.108 686.943 482.338 686.943C481.605 686.943 480.853 686.962 480.083 686.998C479.313 687.035 478.525 687.072 477.718 687.108C476.911 687.182 476.068 687.218 475.188 687.218C474.821 687.218 474.491 687.145 474.198 686.998C473.941 686.888 473.813 686.723 473.813 686.503C473.813 686.21 473.941 685.972 474.198 685.788C474.491 685.605 474.858 685.477 475.298 685.403C476.545 685.147 477.406 684.762 477.883 684.248C478.396 683.735 478.616 682.873 478.543 681.663C478.506 679.28 478.451 676.988 478.378 674.788C478.305 672.588 478.231 670.407 478.158 668.243C478.085 666.08 477.993 663.898 477.883 661.698C477.846 661.405 477.755 661.277 477.608 661.313C477.498 661.313 477.37 661.46 477.223 661.753L466.003 687.053C465.856 687.457 465.618 687.622 465.288 687.548C464.958 687.512 464.738 687.347 464.628 687.053C462.941 682.8 461.163 678.602 459.293 674.458C457.46 670.278 455.645 666.043 453.848 661.753C453.738 661.46 453.573 661.35 453.353 661.423C453.17 661.497 453.06 661.698 453.023 662.028C452.84 664.082 452.675 666.208 452.528 668.408C452.381 670.572 452.29 672.735 452.253 674.898C452.216 677.062 452.198 679.207 452.198 681.333C452.198 682.323 452.51 683.167 453.133 683.863C453.793 684.56 454.783 685.073 456.103 685.403C456.543 685.477 456.91 685.605 457.203 685.788C457.533 685.935 457.698 686.155 457.698 686.448C457.698 686.705 457.551 686.888 457.258 686.998C456.965 687.108 456.635 687.163 456.268 687.163C455.278 687.163 454.526 687.145 454.013 687.108C453.5 687.072 453.023 687.035 452.583 686.998C452.143 686.962 451.556 686.943 450.823 686.943C450.053 686.943 449.32 686.962 448.623 686.998C447.963 687.035 447.34 687.072 446.753 687.108C446.166 687.182 445.653 687.218 445.213 687.218Z" fill="#F0EBFA"></path>
<path d="M392.603 687.274C392.163 687.274 391.796 687.201 391.503 687.054C391.209 686.944 391.062 686.743 391.062 686.449C391.062 686.119 391.191 685.863 391.448 685.679C391.741 685.496 392.108 685.331 392.548 685.184C393.611 684.891 394.528 684.451 395.298 683.864C396.104 683.241 396.746 682.398 397.223 681.334C398.139 679.171 399.019 677.099 399.862 675.119C400.706 673.103 401.513 671.104 402.283 669.124C403.053 667.144 403.822 665.128 404.592 663.074C405.399 661.021 406.206 658.858 407.013 656.584C407.416 655.448 407.691 654.568 407.837 653.944C407.984 653.321 408.113 652.863 408.223 652.569C408.773 652.423 409.286 652.276 409.763 652.129C410.239 651.983 410.771 651.799 411.358 651.579C411.871 651.323 412.311 650.993 412.677 650.589C413.044 650.186 413.319 649.874 413.503 649.654C413.613 649.581 413.722 649.544 413.832 649.544C413.942 649.508 414.053 649.581 414.163 649.764C414.273 649.984 414.364 650.204 414.438 650.424C414.511 650.644 414.584 650.883 414.658 651.139C415.464 653.743 416.289 656.383 417.133 659.059C418.013 661.699 418.874 664.321 419.717 666.924C420.561 669.491 421.368 671.966 422.138 674.349C422.944 676.696 423.677 678.859 424.337 680.839C424.667 681.829 425.071 682.618 425.548 683.204C426.061 683.791 426.611 684.249 427.198 684.579C427.821 684.873 428.499 685.111 429.233 685.294C429.709 685.404 430.076 685.551 430.332 685.734C430.589 685.918 430.717 686.174 430.717 686.504C430.717 686.724 430.589 686.889 430.332 686.999C430.112 687.109 429.819 687.164 429.453 687.164C428.793 687.164 427.949 687.146 426.923 687.109C425.933 687.073 424.906 687.036 423.842 686.999C422.779 686.926 421.826 686.889 420.983 686.889C420.249 686.889 419.424 686.908 418.508 686.944C417.628 686.981 416.729 687.018 415.812 687.054C414.933 687.091 414.181 687.109 413.557 687.109C413.191 687.109 412.861 687.054 412.568 686.944C412.311 686.798 412.182 686.596 412.182 686.339C412.182 686.046 412.329 685.808 412.622 685.624C412.916 685.404 413.264 685.258 413.668 685.184C414.988 684.964 415.941 684.634 416.527 684.194C417.114 683.718 417.334 683.039 417.188 682.159C417.078 681.536 416.913 680.803 416.693 679.959C416.473 679.079 416.234 678.181 415.978 677.264C415.758 676.311 415.519 675.449 415.263 674.679C415.189 674.386 415.079 674.184 414.932 674.074C414.786 673.928 414.511 673.854 414.108 673.854H404.207C403.951 673.854 403.749 673.946 403.603 674.129C403.456 674.276 403.346 674.514 403.272 674.844C403.126 675.321 402.943 675.871 402.723 676.494C402.539 677.081 402.337 677.704 402.117 678.364C401.934 678.988 401.751 679.574 401.568 680.124C401.421 680.674 401.311 681.151 401.237 681.554C401.054 682.544 401.219 683.333 401.733 683.919C402.283 684.469 403.218 684.909 404.538 685.239C405.528 685.496 406.022 685.881 406.022 686.394C406.022 686.614 405.894 686.798 405.638 686.944C405.418 687.054 405.087 687.109 404.647 687.109C403.804 687.109 402.924 687.073 402.008 686.999C401.091 686.963 400.083 686.944 398.983 686.944C397.883 686.944 396.801 686.999 395.737 687.109C394.711 687.219 393.666 687.274 392.603 687.274ZM405.693 671.324H413.337C413.851 671.324 414.108 671.214 414.108 670.994C414.108 670.884 414.089 670.793 414.052 670.719C414.052 670.646 414.034 670.536 413.997 670.389L410.147 657.684C410.001 657.171 409.873 656.914 409.763 656.914C409.689 656.914 409.561 657.153 409.378 657.629L404.758 670.389C404.684 670.573 404.647 670.719 404.647 670.829C404.647 671.013 404.739 671.141 404.923 671.214C405.143 671.288 405.399 671.324 405.693 671.324Z" fill="#F0EBFA"></path>
<path d="M365.824 687.219C365.494 687.219 365.2 687.146 364.944 686.999C364.687 686.889 364.559 686.724 364.559 686.504C364.559 685.954 365.017 685.587 365.934 685.404C367.327 685.111 368.317 684.707 368.904 684.194C369.49 683.681 369.784 682.819 369.784 681.609V657.409C369.784 656.016 369.545 654.989 369.069 654.329C368.629 653.669 367.749 653.192 366.429 652.899C365.915 652.789 365.549 652.642 365.329 652.459C365.109 652.239 364.999 652.019 364.999 651.799C364.999 651.542 365.109 651.359 365.329 651.249C365.585 651.102 365.915 651.029 366.319 651.029C367.199 651.029 368.005 651.047 368.739 651.084C369.509 651.084 370.242 651.102 370.939 651.139C371.635 651.176 372.35 651.194 373.084 651.194C373.89 651.194 374.642 651.157 375.339 651.084C376.072 651.011 376.805 650.937 377.539 650.864C378.309 650.791 379.189 650.754 380.179 650.754C384.542 650.754 388.025 651.671 390.629 653.504C393.232 655.337 394.534 657.867 394.534 661.094C394.534 663.367 394.057 665.476 393.104 667.419C392.187 669.326 390.757 670.866 388.814 672.039C386.907 673.212 384.487 673.799 381.554 673.799C380.637 673.799 379.94 673.671 379.464 673.414C378.987 673.121 378.749 672.809 378.749 672.479C378.749 672.259 378.859 672.076 379.079 671.929C379.335 671.746 379.555 671.654 379.739 671.654C380.069 671.654 380.38 671.691 380.674 671.764C381.004 671.801 381.48 671.819 382.104 671.819C383.827 671.819 385.129 670.939 386.009 669.179C386.925 667.419 387.384 665.072 387.384 662.139C387.384 658.912 386.724 656.566 385.404 655.099C384.12 653.596 382.379 652.844 380.179 652.844C379.152 652.844 378.345 653.064 377.759 653.504C377.209 653.907 376.934 654.567 376.934 655.484L376.879 681.279C376.879 682.489 377.172 683.406 377.759 684.029C378.382 684.616 379.427 685.074 380.894 685.404C381.37 685.477 381.719 685.606 381.939 685.789C382.159 685.936 382.269 686.156 382.269 686.449C382.269 686.706 382.159 686.889 381.939 686.999C381.755 687.109 381.462 687.164 381.059 687.164C380.215 687.164 379.354 687.127 378.474 687.054C377.594 687.017 376.732 686.981 375.889 686.944C375.082 686.907 374.312 686.889 373.579 686.889C372.772 686.889 371.929 686.907 371.049 686.944C370.205 686.981 369.344 687.036 368.464 687.109C367.584 687.182 366.704 687.219 365.824 687.219Z" fill="#F0EBFA"></path>
<path d="M337.25 687.219C336.883 687.219 336.553 687.146 336.26 686.999C336.003 686.889 335.875 686.724 335.875 686.504C335.875 686.211 336.003 685.972 336.26 685.789C336.517 685.606 336.883 685.477 337.36 685.404C338.753 685.111 339.78 684.707 340.44 684.194C341.1 683.644 341.43 682.764 341.43 681.554V659.279C341.43 657.776 341.393 656.639 341.32 655.869C341.247 655.099 341.137 654.586 340.99 654.329C340.88 654.036 340.697 653.871 340.44 653.834C340.073 653.687 339.615 653.596 339.065 653.559C338.515 653.522 337.983 653.504 337.47 653.504H335.765C334.701 653.504 333.675 653.761 332.685 654.274C331.695 654.751 330.925 655.411 330.375 656.254C330.228 656.474 329.99 656.786 329.66 657.189C329.367 657.592 329.036 657.959 328.67 658.289C328.34 658.619 327.991 658.784 327.625 658.784C327.368 658.784 327.185 658.692 327.075 658.509C327.002 658.326 326.965 658.124 326.965 657.904C326.965 657.464 327.075 657.024 327.295 656.584C327.918 655.337 328.376 654.256 328.67 653.339C329 652.386 329.22 651.267 329.33 649.984C329.403 649.434 329.55 649.086 329.77 648.939C330.027 648.756 330.283 648.664 330.54 648.664C330.76 648.664 331.016 648.902 331.31 649.379C331.64 649.819 331.933 650.186 332.19 650.479C332.52 650.809 333.107 651.066 333.95 651.249C334.793 651.396 335.508 651.469 336.095 651.469L356.39 651.414C357.417 651.414 358.278 651.341 358.975 651.194C359.672 651.011 360.221 650.827 360.625 650.644C361.175 650.314 361.615 649.984 361.945 649.654C362.275 649.287 362.66 649.104 363.1 649.104C363.283 649.104 363.412 649.214 363.485 649.434C363.595 649.617 363.65 649.856 363.65 650.149C363.65 650.332 363.631 650.552 363.595 650.809C363.558 651.029 363.522 651.231 363.485 651.414C363.338 652.111 363.192 652.734 363.045 653.284C362.898 653.797 362.77 654.292 362.66 654.769C362.587 655.209 362.55 655.722 362.55 656.309V657.244C362.55 657.757 362.477 658.197 362.33 658.564C362.183 658.931 361.945 659.114 361.615 659.114C361.321 659.114 361.065 658.949 360.845 658.619C360.662 658.252 360.46 657.702 360.24 656.969C359.91 655.796 359.36 654.934 358.59 654.384C357.82 653.797 356.61 653.504 354.96 653.504H351.22C350.523 653.504 349.973 653.632 349.57 653.889C349.203 654.146 348.928 654.714 348.745 655.594C348.598 656.437 348.525 657.757 348.525 659.554V681.499C348.525 682.672 348.855 683.534 349.515 684.084C350.175 684.597 351.22 685.037 352.65 685.404C353.09 685.514 353.438 685.642 353.695 685.789C353.952 685.936 354.08 686.156 354.08 686.449C354.08 686.706 353.952 686.889 353.695 686.999C353.475 687.109 353.182 687.164 352.815 687.164C351.935 687.164 351.055 687.146 350.175 687.109C349.295 687.072 348.415 687.036 347.535 686.999C346.692 686.962 345.867 686.944 345.06 686.944C344.253 686.944 343.41 686.962 342.53 686.999C341.686 687.036 340.806 687.072 339.89 687.109C339.01 687.182 338.13 687.219 337.25 687.219Z" fill="#F0EBFA"></path>
<path d="M309.036 687.77C306.286 687.77 303.683 687.349 301.226 686.505C298.769 685.625 296.588 684.379 294.681 682.765C292.811 681.152 291.326 679.227 290.226 676.99C289.163 674.717 288.631 672.205 288.631 669.455C288.631 666.889 289.163 664.469 290.226 662.195C291.289 659.922 292.793 657.905 294.736 656.145C296.679 654.385 298.989 653.01 301.666 652.02C304.379 650.994 307.349 650.48 310.576 650.48C311.823 650.48 312.996 650.572 314.096 650.755C315.233 650.902 316.333 651.104 317.396 651.36C318.459 651.58 319.504 651.874 320.531 652.24C320.934 652.387 321.246 652.589 321.466 652.845C321.723 653.102 321.869 653.45 321.906 653.89C322.053 654.99 322.163 656.09 322.236 657.19C322.309 658.254 322.346 659.317 322.346 660.38C322.383 660.747 322.254 661.022 321.961 661.205C321.668 661.352 321.356 661.37 321.026 661.26C320.696 661.114 320.458 660.839 320.311 660.435C320.018 659.409 319.669 658.455 319.266 657.575C318.899 656.659 318.331 655.889 317.561 655.265C316.718 654.569 315.654 654.019 314.371 653.615C313.088 653.175 311.584 652.955 309.861 652.955C307.881 652.955 306.084 653.359 304.471 654.165C302.858 654.972 301.464 656.09 300.291 657.52C299.154 658.95 298.274 660.564 297.651 662.36C297.028 664.157 296.716 666.045 296.716 668.025C296.716 670.372 296.991 672.59 297.541 674.68C298.128 676.77 298.989 678.622 300.126 680.235C301.299 681.812 302.711 683.059 304.361 683.975C306.011 684.855 307.899 685.295 310.026 685.295C312.739 685.295 314.939 684.709 316.626 683.535C318.313 682.362 319.743 680.62 320.916 678.31C321.209 677.724 321.613 677.449 322.126 677.485C322.639 677.485 322.896 677.779 322.896 678.365C322.896 678.805 322.841 679.355 322.731 680.015C322.621 680.675 322.456 681.39 322.236 682.16C322.053 682.894 321.833 683.627 321.576 684.36C321.429 684.8 321.246 685.13 321.026 685.35C320.806 685.57 320.476 685.772 320.036 685.955C318.643 686.542 316.993 686.982 315.086 687.275C313.216 687.605 311.199 687.77 309.036 687.77Z" fill="#F0EBFA"></path>
<path d="M244.337 687.219C244.007 687.219 243.714 687.145 243.457 686.999C243.201 686.889 243.072 686.724 243.072 686.504C243.072 685.954 243.531 685.587 244.447 685.404C245.841 685.11 246.776 684.707 247.252 684.194C247.729 683.68 247.967 682.819 247.967 681.609V656.694C247.967 655.484 247.766 654.622 247.362 654.109C246.959 653.595 246.042 653.192 244.612 652.899C243.696 652.715 243.237 652.33 243.237 651.744C243.237 651.524 243.366 651.359 243.622 651.249C243.879 651.102 244.172 651.029 244.502 651.029C245.382 651.029 246.226 651.047 247.032 651.084C247.839 651.12 248.609 651.157 249.342 651.194C250.112 651.23 250.864 651.249 251.597 651.249C252.331 651.249 253.082 651.23 253.852 651.194C254.659 651.157 255.484 651.12 256.327 651.084C257.171 651.047 258.032 651.029 258.912 651.029C259.279 651.029 259.572 651.102 259.792 651.249C260.012 651.359 260.122 651.542 260.122 651.799C260.122 652.092 259.994 652.33 259.737 652.514C259.517 652.66 259.169 652.789 258.692 652.899C257.262 653.265 256.291 653.724 255.777 654.274C255.301 654.824 255.062 655.649 255.062 656.749V676.109C255.062 676.549 255.117 676.805 255.227 676.879C255.337 676.952 255.539 676.842 255.832 676.549L273.487 657.849C273.817 657.519 273.982 657.152 273.982 656.749V656.309C273.946 655.282 273.652 654.53 273.102 654.054C272.589 653.577 271.672 653.192 270.352 652.899C269.436 652.715 268.977 652.33 268.977 651.744C268.977 651.524 269.106 651.359 269.362 651.249C269.619 651.102 269.912 651.029 270.242 651.029C271.122 651.029 271.984 651.047 272.827 651.084C273.671 651.12 274.496 651.157 275.302 651.194C276.109 651.23 276.897 651.249 277.667 651.249C278.364 651.249 279.079 651.23 279.812 651.194C280.546 651.157 281.316 651.12 282.122 651.084C282.929 651.047 283.772 651.029 284.652 651.029C285.019 651.029 285.312 651.102 285.532 651.249C285.752 651.359 285.862 651.542 285.862 651.799C285.862 652.092 285.734 652.33 285.477 652.514C285.257 652.66 284.909 652.789 284.432 652.899C283.002 653.265 282.086 653.724 281.682 654.274C281.316 654.824 281.132 655.63 281.132 656.694V681.554C281.132 682.727 281.334 683.57 281.737 684.084C282.177 684.597 283.094 685.037 284.487 685.404C284.964 685.514 285.312 685.642 285.532 685.789C285.752 685.935 285.862 686.155 285.862 686.449C285.862 686.705 285.752 686.889 285.532 686.999C285.349 687.109 285.074 687.164 284.707 687.164C283.827 687.164 282.966 687.145 282.122 687.109C281.279 687.072 280.454 687.035 279.647 686.999C278.877 686.962 278.126 686.944 277.392 686.944C276.622 686.944 275.852 686.962 275.082 686.999C274.349 687.035 273.561 687.072 272.717 687.109C271.911 687.182 271.067 687.219 270.187 687.219C269.857 687.219 269.564 687.145 269.307 686.999C269.051 686.889 268.922 686.724 268.922 686.504C268.922 685.954 269.381 685.587 270.297 685.404C271.617 685.11 272.552 684.744 273.102 684.304C273.689 683.864 273.982 683.075 273.982 681.939V662.029C273.982 661.479 273.817 661.369 273.487 661.699L255.667 680.564C255.447 680.82 255.282 681.022 255.172 681.169C255.099 681.315 255.062 681.572 255.062 681.939C255.062 683.002 255.374 683.772 255.997 684.249C256.657 684.689 257.647 685.074 258.967 685.404C259.444 685.514 259.792 685.642 260.012 685.789C260.269 685.935 260.397 686.155 260.397 686.449C260.397 686.705 260.287 686.889 260.067 686.999C259.847 687.109 259.554 687.164 259.187 687.164C258.307 687.164 257.427 687.145 256.547 687.109C255.667 687.072 254.806 687.035 253.962 686.999C253.156 686.962 252.367 686.944 251.597 686.944C250.827 686.944 250.057 686.962 249.287 686.999C248.517 687.035 247.711 687.072 246.867 687.109C246.061 687.182 245.217 687.219 244.337 687.219ZM264.742 648.884C262.616 648.884 260.911 648.59 259.627 648.004C258.381 647.38 257.482 646.61 256.932 645.694C256.382 644.777 256.107 643.879 256.107 642.999C256.107 641.789 256.401 640.835 256.987 640.139C257.574 639.442 258.326 639.094 259.242 639.094C260.196 639.094 260.892 639.295 261.332 639.699C261.809 640.102 262.047 640.615 262.047 641.239C262.047 641.495 262.029 641.77 261.992 642.064C261.956 642.32 261.901 642.559 261.827 642.779C261.754 642.962 261.681 643.164 261.607 643.384C261.571 643.604 261.552 643.842 261.552 644.099C261.552 644.612 261.827 645.089 262.377 645.529C262.964 645.969 263.844 646.189 265.017 646.189C266.777 646.189 268.134 645.73 269.087 644.814C270.077 643.86 270.792 642.595 271.232 641.019C271.342 640.579 271.471 640.285 271.617 640.139C271.801 639.955 271.984 639.864 272.167 639.864C272.424 639.864 272.589 639.992 272.662 640.249C272.772 640.469 272.827 640.707 272.827 640.964C272.827 642.357 272.479 643.659 271.782 644.869C271.086 646.079 270.132 647.05 268.922 647.784C267.712 648.517 266.319 648.884 264.742 648.884Z" fill="#F0EBFA"></path>
<path d="M204.345 687.274C203.905 687.274 203.538 687.201 203.245 687.054C202.951 686.944 202.805 686.743 202.805 686.449C202.805 686.119 202.933 685.863 203.19 685.679C203.483 685.496 203.85 685.331 204.29 685.184C205.353 684.891 206.27 684.451 207.04 683.864C207.846 683.241 208.488 682.398 208.965 681.334C209.881 679.171 210.761 677.099 211.605 675.119C212.448 673.103 213.255 671.104 214.025 669.124C214.795 667.144 215.565 665.128 216.335 663.074C217.141 661.021 217.948 658.858 218.755 656.584C219.158 655.448 219.433 654.568 219.58 653.944C219.726 653.321 219.855 652.863 219.965 652.569C220.515 652.423 221.028 652.276 221.505 652.129C221.981 651.983 222.513 651.799 223.1 651.579C223.613 651.323 224.053 650.993 224.42 650.589C224.786 650.186 225.061 649.874 225.245 649.654C225.355 649.581 225.465 649.544 225.575 649.544C225.685 649.508 225.795 649.581 225.905 649.764C226.015 649.984 226.106 650.204 226.18 650.424C226.253 650.644 226.326 650.883 226.4 651.139C227.206 653.743 228.031 656.383 228.875 659.059C229.755 661.699 230.616 664.321 231.46 666.924C232.303 669.491 233.11 671.966 233.88 674.349C234.686 676.696 235.42 678.859 236.08 680.839C236.41 681.829 236.813 682.618 237.29 683.204C237.803 683.791 238.353 684.249 238.94 684.579C239.563 684.873 240.241 685.111 240.975 685.294C241.451 685.404 241.818 685.551 242.075 685.734C242.331 685.918 242.46 686.174 242.46 686.504C242.46 686.724 242.331 686.889 242.075 686.999C241.855 687.109 241.561 687.164 241.195 687.164C240.535 687.164 239.691 687.146 238.665 687.109C237.675 687.073 236.648 687.036 235.585 686.999C234.521 686.926 233.568 686.889 232.725 686.889C231.991 686.889 231.166 686.908 230.25 686.944C229.37 686.981 228.471 687.018 227.555 687.054C226.675 687.091 225.923 687.109 225.3 687.109C224.933 687.109 224.603 687.054 224.31 686.944C224.053 686.798 223.925 686.596 223.925 686.339C223.925 686.046 224.071 685.808 224.365 685.624C224.658 685.404 225.006 685.258 225.41 685.184C226.73 684.964 227.683 684.634 228.27 684.194C228.856 683.718 229.076 683.039 228.93 682.159C228.82 681.536 228.655 680.803 228.435 679.959C228.215 679.079 227.976 678.181 227.72 677.264C227.5 676.311 227.261 675.449 227.005 674.679C226.931 674.386 226.821 674.184 226.675 674.074C226.528 673.928 226.253 673.854 225.85 673.854H215.95C215.693 673.854 215.491 673.946 215.345 674.129C215.198 674.276 215.088 674.514 215.015 674.844C214.868 675.321 214.685 675.871 214.465 676.494C214.281 677.081 214.08 677.704 213.86 678.364C213.676 678.988 213.493 679.574 213.31 680.124C213.163 680.674 213.053 681.151 212.98 681.554C212.796 682.544 212.961 683.333 213.475 683.919C214.025 684.469 214.96 684.909 216.28 685.239C217.27 685.496 217.765 685.881 217.765 686.394C217.765 686.614 217.636 686.798 217.38 686.944C217.16 687.054 216.83 687.109 216.39 687.109C215.546 687.109 214.666 687.073 213.75 686.999C212.833 686.963 211.825 686.944 210.725 686.944C209.625 686.944 208.543 686.999 207.48 687.109C206.453 687.219 205.408 687.274 204.345 687.274ZM217.435 671.324H225.08C225.593 671.324 225.85 671.214 225.85 670.994C225.85 670.884 225.831 670.793 225.795 670.719C225.795 670.646 225.776 670.536 225.74 670.389L221.89 657.684C221.743 657.171 221.615 656.914 221.505 656.914C221.431 656.914 221.303 657.153 221.12 657.629L216.5 670.389C216.426 670.573 216.39 670.719 216.39 670.829C216.39 671.013 216.481 671.141 216.665 671.214C216.885 671.288 217.141 671.324 217.435 671.324Z" fill="#F0EBFA"></path>
<path d="M155.334 687.218C154.894 687.218 154.546 687.145 154.289 686.998C154.069 686.888 153.959 686.723 153.959 686.503C153.959 686.21 154.106 686.008 154.399 685.898C154.729 685.752 155.114 685.623 155.554 685.513C156.434 685.257 157.186 684.762 157.809 684.028C158.432 683.295 158.817 682.342 158.964 681.168C159.257 678.932 159.532 676.493 159.789 673.853C160.082 671.213 160.339 668.555 160.559 665.878C160.816 663.202 161.017 660.69 161.164 658.343C161.164 658.087 161.164 657.793 161.164 657.463C161.164 657.133 161.164 656.803 161.164 656.473C161.127 655.923 161.017 655.483 160.834 655.153C160.687 654.787 160.412 654.457 160.009 654.163C159.496 653.797 158.964 653.522 158.414 653.338C157.864 653.118 157.241 652.935 156.544 652.788C156.141 652.715 155.811 652.587 155.554 652.403C155.334 652.183 155.224 651.927 155.224 651.633C155.224 651.34 155.371 651.138 155.664 651.028C155.957 650.918 156.342 650.863 156.819 650.863C157.296 650.863 157.937 650.882 158.744 650.918C159.551 650.955 160.412 651.01 161.329 651.083C162.282 651.12 163.217 651.157 164.134 651.193C165.051 651.23 165.857 651.248 166.554 651.248C166.847 651.248 167.104 651.34 167.324 651.523C167.544 651.707 167.691 651.927 167.764 652.183C167.984 652.88 168.204 653.558 168.424 654.218C168.644 654.878 168.882 655.575 169.139 656.308L177.389 676.493C177.499 676.677 177.646 676.787 177.829 676.823C178.012 676.823 178.141 676.732 178.214 676.548L187.069 656.858C187.326 655.795 187.527 654.86 187.674 654.053C187.857 653.247 188.022 652.605 188.169 652.128C188.279 651.652 188.517 651.413 188.884 651.413H191.139C192.532 651.34 193.999 651.23 195.539 651.083C197.079 650.937 198.271 650.863 199.114 650.863C199.407 650.863 199.682 650.918 199.939 651.028C200.232 651.102 200.379 651.285 200.379 651.578C200.379 651.872 200.269 652.092 200.049 652.238C199.829 652.385 199.499 652.55 199.059 652.733C198.766 652.807 198.417 652.935 198.014 653.118C197.611 653.265 197.262 653.412 196.969 653.558C196.199 653.888 195.612 654.31 195.209 654.823C194.842 655.337 194.677 656.07 194.714 657.023C194.751 659.627 194.824 661.973 194.934 664.063C195.044 666.117 195.136 668.06 195.209 669.893C195.319 671.69 195.447 673.542 195.594 675.448C195.741 677.318 195.869 679.39 195.979 681.663C196.052 682.69 196.437 683.497 197.134 684.083C197.867 684.67 198.839 685.11 200.049 685.403C200.489 685.513 200.837 685.642 201.094 685.788C201.387 685.935 201.534 686.155 201.534 686.448C201.534 686.705 201.406 686.888 201.149 686.998C200.929 687.108 200.617 687.163 200.214 687.163C199.371 687.163 198.491 687.145 197.574 687.108C196.657 687.072 195.759 687.035 194.879 686.998C194.036 686.962 193.229 686.943 192.459 686.943C191.726 686.943 190.974 686.962 190.204 686.998C189.434 687.035 188.646 687.072 187.839 687.108C187.032 687.182 186.189 687.218 185.309 687.218C184.942 687.218 184.612 687.145 184.319 686.998C184.062 686.888 183.934 686.723 183.934 686.503C183.934 686.21 184.062 685.972 184.319 685.788C184.612 685.605 184.979 685.477 185.419 685.403C186.666 685.147 187.527 684.762 188.004 684.248C188.517 683.735 188.737 682.873 188.664 681.663C188.627 679.28 188.572 676.988 188.499 674.788C188.426 672.588 188.352 670.407 188.279 668.243C188.206 666.08 188.114 663.898 188.004 661.698C187.967 661.405 187.876 661.277 187.729 661.313C187.619 661.313 187.491 661.46 187.344 661.753L176.124 687.053C175.977 687.457 175.739 687.622 175.409 687.548C175.079 687.512 174.859 687.347 174.749 687.053C173.062 682.8 171.284 678.602 169.414 674.458C167.581 670.278 165.766 666.043 163.969 661.753C163.859 661.46 163.694 661.35 163.474 661.423C163.291 661.497 163.181 661.698 163.144 662.028C162.961 664.082 162.796 666.208 162.649 668.408C162.502 670.572 162.411 672.735 162.374 674.898C162.337 677.062 162.319 679.207 162.319 681.333C162.319 682.323 162.631 683.167 163.254 683.863C163.914 684.56 164.904 685.073 166.224 685.403C166.664 685.477 167.031 685.605 167.324 685.788C167.654 685.935 167.819 686.155 167.819 686.448C167.819 686.705 167.672 686.888 167.379 686.998C167.086 687.108 166.756 687.163 166.389 687.163C165.399 687.163 164.647 687.145 164.134 687.108C163.621 687.072 163.144 687.035 162.704 686.998C162.264 686.962 161.677 686.943 160.944 686.943C160.174 686.943 159.441 686.962 158.744 686.998C158.084 687.035 157.461 687.072 156.874 687.108C156.287 687.182 155.774 687.218 155.334 687.218Z" fill="#F0EBFA"></path>
<path d="M543.31 617.201C542.246 617.201 541.256 616.963 540.34 616.486C539.423 616.046 538.69 615.405 538.14 614.561C537.59 613.718 537.315 612.746 537.315 611.646C537.315 611.426 537.48 611.096 537.81 610.656C538.14 610.18 538.415 609.941 538.635 609.941C538.745 609.941 539.001 610.015 539.405 610.161C539.845 610.271 540.34 610.418 540.89 610.601C541.44 610.785 542.063 610.968 542.76 611.151C543.456 611.298 544.135 611.371 544.795 611.371C545.528 611.371 546.17 611.206 546.72 610.876C547.27 610.51 547.765 609.923 548.205 609.116C548.315 608.933 548.406 608.75 548.48 608.566C548.59 608.346 548.645 608.108 548.645 607.851C548.645 607.558 548.571 607.265 548.425 606.971C548.315 606.678 548.168 606.348 547.985 605.981L537.7 585.301C537.186 584.165 536.6 583.211 535.94 582.441C535.28 581.671 534.381 581.176 533.245 580.956C532.805 580.883 532.438 580.755 532.145 580.571C531.888 580.351 531.76 580.095 531.76 579.801C531.76 579.545 531.888 579.361 532.145 579.251C532.401 579.105 532.713 579.031 533.08 579.031C533.74 579.031 534.51 579.05 535.39 579.086C536.27 579.123 537.15 579.16 538.03 579.196C538.946 579.233 539.79 579.251 540.56 579.251C541.22 579.251 541.971 579.233 542.815 579.196C543.695 579.16 544.556 579.123 545.4 579.086C546.243 579.05 546.976 579.031 547.6 579.031C547.966 579.031 548.315 579.105 548.645 579.251C548.975 579.361 549.14 579.545 549.14 579.801C549.14 580.095 548.975 580.333 548.645 580.516C548.315 580.663 547.93 580.81 547.49 580.956C546.756 581.103 546.133 581.323 545.62 581.616C545.106 581.873 544.85 582.35 544.85 583.046C544.85 583.34 544.941 583.725 545.125 584.201C545.308 584.678 545.528 585.191 545.785 585.741L552.605 598.886C552.715 599.18 552.806 599.418 552.88 599.601C552.99 599.748 553.081 599.821 553.155 599.821C553.375 599.821 553.613 599.491 553.87 598.831L558.49 587.061C558.82 586.181 559.058 585.485 559.205 584.971C559.351 584.421 559.425 583.945 559.425 583.541C559.425 582.881 559.095 582.35 558.435 581.946C557.811 581.506 557.078 581.195 556.235 581.011C555.868 580.938 555.483 580.81 555.08 580.626C554.713 580.406 554.53 580.15 554.53 579.856C554.53 579.636 554.676 579.471 554.97 579.361C555.3 579.215 555.685 579.141 556.125 579.141C557.151 579.141 558.031 579.178 558.765 579.251C559.535 579.288 560.268 579.306 560.965 579.306C562.028 579.306 563.018 579.27 563.935 579.196C564.851 579.086 565.75 579.031 566.63 579.031C567.07 579.031 567.455 579.086 567.785 579.196C568.115 579.306 568.28 579.508 568.28 579.801C568.28 580.131 568.115 580.37 567.785 580.516C567.491 580.663 567.125 580.791 566.685 580.901C565.658 581.158 564.796 581.635 564.1 582.331C563.44 583.028 562.926 583.835 562.56 584.751L555.52 600.701C553.723 604.771 552.128 608.016 550.735 610.436C549.341 612.856 548.058 614.58 546.885 615.606C545.711 616.67 544.52 617.201 543.31 617.201Z" fill="#F0EBFA"></path>
<path d="M526.015 615.99C523.999 615.99 522.348 615.605 521.065 614.835C519.818 614.065 518.7 612.727 517.71 610.82L512.705 600.975C512.229 600.059 511.715 599.307 511.165 598.72C510.652 598.134 510.138 597.767 509.625 597.62C509.295 597.51 508.965 597.455 508.635 597.455C508.342 597.455 508.048 597.455 507.755 597.455C507.572 597.455 507.444 597.547 507.37 597.73C507.334 597.914 507.315 598.115 507.315 598.335L507.425 609.335C507.425 610.032 507.517 610.655 507.7 611.205C507.883 611.719 508.213 612.159 508.69 612.525C509.167 612.855 509.882 613.149 510.835 613.405C511.312 613.515 511.697 613.644 511.99 613.79C512.284 613.937 512.43 614.157 512.43 614.45C512.43 614.707 512.265 614.89 511.935 615C511.605 615.147 511.239 615.22 510.835 615.22C509.735 615.22 508.819 615.184 508.085 615.11C507.352 615.037 506.674 614.982 506.05 614.945C505.464 614.872 504.803 614.835 504.07 614.835C503.3 614.835 502.567 614.872 501.87 614.945C501.174 615.019 500.422 615.092 499.615 615.165C498.845 615.275 497.892 615.33 496.755 615.33C496.352 615.33 495.985 615.239 495.655 615.055C495.325 614.909 495.16 614.725 495.16 614.505C495.16 613.955 495.692 613.589 496.755 613.405C498.148 613.112 499.065 612.709 499.505 612.195C499.982 611.682 500.22 610.802 500.22 609.555V584.695C500.22 583.485 499.963 582.624 499.45 582.11C498.973 581.597 498.02 581.194 496.59 580.9C495.637 580.717 495.16 580.332 495.16 579.745C495.16 579.525 495.288 579.36 495.545 579.25C495.802 579.104 496.095 579.03 496.425 579.03C497.305 579.03 498.167 579.049 499.01 579.085C499.853 579.122 500.679 579.159 501.485 579.195C502.292 579.232 503.08 579.25 503.85 579.25C504.547 579.25 505.262 579.232 505.995 579.195C506.765 579.159 507.535 579.122 508.305 579.085C509.112 579.049 509.955 579.03 510.835 579.03C511.202 579.03 511.495 579.104 511.715 579.25C511.935 579.36 512.045 579.544 512.045 579.8C512.045 580.094 511.917 580.332 511.66 580.515C511.44 580.662 511.092 580.79 510.615 580.9C509.185 581.267 508.269 581.725 507.865 582.275C507.499 582.825 507.315 583.65 507.315 584.75V594.375C507.315 594.742 507.352 594.999 507.425 595.145C507.535 595.255 507.663 595.31 507.81 595.31H509.295C510.798 595.31 512.082 594.779 513.145 593.715C514.209 592.615 515.07 591.277 515.73 589.7L517.71 584.75C518.187 583.614 518.7 582.569 519.25 581.615C519.837 580.662 520.607 579.91 521.56 579.36C522.514 578.774 523.723 578.48 525.19 578.48C526.62 578.48 527.61 578.829 528.16 579.525C528.747 580.222 529.04 581.029 529.04 581.945C529.04 582.789 528.802 583.54 528.325 584.2C527.885 584.86 527.262 585.19 526.455 585.19C525.832 585.19 525.19 585.025 524.53 584.695C523.87 584.329 523.265 584.145 522.715 584.145C522.055 584.145 521.45 584.347 520.9 584.75C520.35 585.117 519.855 585.85 519.415 586.95L517.765 591.13C517.472 591.9 517.105 592.579 516.665 593.165C516.225 593.752 515.749 594.229 515.235 594.595C515.052 594.779 514.997 594.962 515.07 595.145C515.143 595.292 515.235 595.42 515.345 595.53C516.298 595.787 517.068 596.227 517.655 596.85C518.242 597.474 518.92 598.482 519.69 599.875L524.2 607.905C524.86 609.079 525.465 610.014 526.015 610.71C526.565 611.407 527.115 611.92 527.665 612.25C528.252 612.544 528.857 612.745 529.48 612.855C530.103 612.929 530.8 612.965 531.57 612.965C531.827 612.965 532.029 613.057 532.175 613.24C532.322 613.387 532.395 613.57 532.395 613.79C532.395 613.937 532.322 614.084 532.175 614.23C532.065 614.377 531.955 614.505 531.845 614.615C531.405 614.945 530.635 615.257 529.535 615.55C528.435 615.844 527.262 615.99 526.015 615.99Z" fill="#F0EBFA"></path>
<path d="M467.687 615.219C467.321 615.219 466.991 615.146 466.697 614.999C466.441 614.889 466.312 614.724 466.312 614.504C466.312 614.211 466.441 613.972 466.697 613.789C466.954 613.606 467.321 613.477 467.797 613.404C469.191 613.111 470.217 612.707 470.877 612.194C471.537 611.644 471.867 610.764 471.867 609.554V587.279C471.867 585.776 471.831 584.639 471.757 583.869C471.684 583.099 471.574 582.586 471.427 582.329C471.317 582.036 471.134 581.871 470.877 581.834C470.511 581.687 470.052 581.596 469.502 581.559C468.952 581.522 468.421 581.504 467.907 581.504H466.202C465.139 581.504 464.112 581.761 463.122 582.274C462.132 582.751 461.362 583.411 460.812 584.254C460.666 584.474 460.427 584.786 460.097 585.189C459.804 585.592 459.474 585.959 459.107 586.289C458.777 586.619 458.429 586.784 458.062 586.784C457.806 586.784 457.622 586.692 457.512 586.509C457.439 586.326 457.402 586.124 457.402 585.904C457.402 585.464 457.512 585.024 457.732 584.584C458.356 583.337 458.814 582.256 459.107 581.339C459.437 580.386 459.657 579.267 459.767 577.984C459.841 577.434 459.987 577.086 460.207 576.939C460.464 576.756 460.721 576.664 460.977 576.664C461.197 576.664 461.454 576.902 461.747 577.379C462.077 577.819 462.371 578.186 462.627 578.479C462.957 578.809 463.544 579.066 464.387 579.249C465.231 579.396 465.946 579.469 466.532 579.469L486.827 579.414C487.854 579.414 488.716 579.341 489.412 579.194C490.109 579.011 490.659 578.827 491.062 578.644C491.612 578.314 492.052 577.984 492.382 577.654C492.712 577.287 493.097 577.104 493.537 577.104C493.721 577.104 493.849 577.214 493.922 577.434C494.032 577.617 494.087 577.856 494.087 578.149C494.087 578.332 494.069 578.552 494.032 578.809C493.996 579.029 493.959 579.231 493.922 579.414C493.776 580.111 493.629 580.734 493.482 581.284C493.336 581.797 493.207 582.292 493.097 582.769C493.024 583.209 492.987 583.722 492.987 584.309V585.244C492.987 585.757 492.914 586.197 492.767 586.564C492.621 586.931 492.382 587.114 492.052 587.114C491.759 587.114 491.502 586.949 491.282 586.619C491.099 586.252 490.897 585.702 490.677 584.969C490.347 583.796 489.797 582.934 489.027 582.384C488.257 581.797 487.047 581.504 485.397 581.504H481.657C480.961 581.504 480.411 581.632 480.007 581.889C479.641 582.146 479.366 582.714 479.182 583.594C479.036 584.437 478.962 585.757 478.962 587.554V609.499C478.962 610.672 479.292 611.534 479.952 612.084C480.612 612.597 481.657 613.037 483.087 613.404C483.527 613.514 483.876 613.642 484.132 613.789C484.389 613.936 484.517 614.156 484.517 614.449C484.517 614.706 484.389 614.889 484.132 614.999C483.912 615.109 483.619 615.164 483.252 615.164C482.372 615.164 481.492 615.146 480.612 615.109C479.732 615.072 478.852 615.036 477.972 614.999C477.129 614.962 476.304 614.944 475.497 614.944C474.691 614.944 473.847 614.962 472.967 614.999C472.124 615.036 471.244 615.072 470.327 615.109C469.447 615.182 468.567 615.219 467.687 615.219Z" fill="#F0EBFA"></path>
<path d="M413.769 615.221C413.439 615.221 413.146 615.148 412.889 615.001C412.632 614.891 412.504 614.726 412.504 614.506C412.504 613.956 412.962 613.59 413.879 613.406C415.272 613.113 416.207 612.71 416.684 612.196C417.161 611.683 417.399 610.821 417.399 609.611V584.696C417.399 583.486 417.197 582.625 416.794 582.111C416.391 581.598 415.474 581.195 414.044 580.901C413.127 580.718 412.669 580.333 412.669 579.746C412.669 579.526 412.797 579.361 413.054 579.251C413.311 579.105 413.604 579.031 413.934 579.031C414.814 579.031 415.657 579.05 416.464 579.086C417.271 579.123 418.041 579.16 418.774 579.196C419.544 579.233 420.296 579.251 421.029 579.251C421.762 579.251 422.514 579.233 423.284 579.196C424.091 579.16 424.916 579.123 425.759 579.086C426.602 579.05 427.464 579.031 428.344 579.031C428.711 579.031 429.004 579.105 429.224 579.251C429.444 579.361 429.554 579.545 429.554 579.801C429.554 580.095 429.426 580.333 429.169 580.516C428.949 580.663 428.601 580.791 428.124 580.901C426.694 581.268 425.722 581.726 425.209 582.276C424.732 582.826 424.494 583.651 424.494 584.751V604.111C424.494 604.551 424.549 604.808 424.659 604.881C424.769 604.955 424.971 604.845 425.264 604.551L442.919 585.851C443.249 585.521 443.414 585.155 443.414 584.751V584.311C443.377 583.285 443.084 582.533 442.534 582.056C442.021 581.58 441.104 581.195 439.784 580.901C438.867 580.718 438.409 580.333 438.409 579.746C438.409 579.526 438.537 579.361 438.794 579.251C439.051 579.105 439.344 579.031 439.674 579.031C440.554 579.031 441.416 579.05 442.259 579.086C443.102 579.123 443.927 579.16 444.734 579.196C445.541 579.233 446.329 579.251 447.099 579.251C447.796 579.251 448.511 579.233 449.244 579.196C449.977 579.16 450.747 579.123 451.554 579.086C452.361 579.05 453.204 579.031 454.084 579.031C454.451 579.031 454.744 579.105 454.964 579.251C455.184 579.361 455.294 579.545 455.294 579.801C455.294 580.095 455.166 580.333 454.909 580.516C454.689 580.663 454.341 580.791 453.864 580.901C452.434 581.268 451.517 581.726 451.114 582.276C450.747 582.826 450.564 583.633 450.564 584.696V609.556C450.564 610.73 450.766 611.573 451.169 612.086C451.609 612.6 452.526 613.04 453.919 613.406C454.396 613.516 454.744 613.645 454.964 613.791C455.184 613.938 455.294 614.158 455.294 614.451C455.294 614.708 455.184 614.891 454.964 615.001C454.781 615.111 454.506 615.166 454.139 615.166C453.259 615.166 452.397 615.148 451.554 615.111C450.711 615.075 449.886 615.038 449.079 615.001C448.309 614.965 447.557 614.946 446.824 614.946C446.054 614.946 445.284 614.965 444.514 615.001C443.781 615.038 442.992 615.075 442.149 615.111C441.342 615.185 440.499 615.221 439.619 615.221C439.289 615.221 438.996 615.148 438.739 615.001C438.482 614.891 438.354 614.726 438.354 614.506C438.354 613.956 438.812 613.59 439.729 613.406C441.049 613.113 441.984 612.746 442.534 612.306C443.121 611.866 443.414 611.078 443.414 609.941V590.031C443.414 589.481 443.249 589.371 442.919 589.701L425.099 608.566C424.879 608.823 424.714 609.025 424.604 609.171C424.531 609.318 424.494 609.575 424.494 609.941C424.494 611.005 424.806 611.775 425.429 612.251C426.089 612.691 427.079 613.076 428.399 613.406C428.876 613.516 429.224 613.645 429.444 613.791C429.701 613.938 429.829 614.158 429.829 614.451C429.829 614.708 429.719 614.891 429.499 615.001C429.279 615.111 428.986 615.166 428.619 615.166C427.739 615.166 426.859 615.148 425.979 615.111C425.099 615.075 424.237 615.038 423.394 615.001C422.587 614.965 421.799 614.946 421.029 614.946C420.259 614.946 419.489 614.965 418.719 615.001C417.949 615.038 417.142 615.075 416.299 615.111C415.492 615.185 414.649 615.221 413.769 615.221Z" fill="#F0EBFA"></path>
<path d="M379.652 615.273C379.249 615.273 378.919 615.2 378.662 615.053C378.442 614.907 378.332 614.723 378.332 614.503C378.332 614.027 378.809 613.678 379.762 613.458C381.045 613.128 381.98 612.725 382.567 612.248C383.19 611.735 383.502 610.873 383.502 609.663V584.748C383.502 583.502 383.245 582.603 382.732 582.053C382.255 581.503 381.357 581.118 380.037 580.898C379.524 580.825 379.157 580.678 378.937 580.458C378.717 580.238 378.607 580.018 378.607 579.798C378.607 579.542 378.717 579.358 378.937 579.248C379.194 579.102 379.524 579.028 379.927 579.028C381.027 579.028 381.925 579.047 382.622 579.083C383.319 579.12 383.979 579.175 384.602 579.248C385.225 579.285 385.959 579.303 386.802 579.303C387.609 579.303 388.324 579.267 388.947 579.193C389.607 579.12 390.322 579.047 391.092 578.973C391.862 578.9 392.852 578.863 394.062 578.863C398.389 578.863 401.652 579.487 403.852 580.733C406.089 581.943 407.207 584.052 407.207 587.058C407.207 588.232 406.95 589.313 406.437 590.303C405.96 591.293 405.392 592.063 404.732 592.613C404.145 593.163 403.559 593.603 402.972 593.933C402.385 594.263 401.67 594.557 400.827 594.813C400.68 594.85 400.607 594.942 400.607 595.088C400.607 595.235 400.68 595.327 400.827 595.363C401.744 595.583 402.679 595.877 403.632 596.243C404.622 596.61 405.539 597.123 406.382 597.783C407.262 598.443 407.959 599.305 408.472 600.368C409.022 601.395 409.297 602.715 409.297 604.328C409.297 606.382 408.967 608.013 408.307 609.223C407.684 610.397 406.914 611.295 405.997 611.918C405.117 612.542 404.292 613.055 403.522 613.458C402.349 614.045 400.992 614.485 399.452 614.778C397.949 615.072 396.134 615.218 394.007 615.218C393.017 615.218 391.954 615.182 390.817 615.108C389.68 615.035 388.489 614.998 387.242 614.998C386.399 614.998 385.555 615.017 384.712 615.053C383.905 615.09 383.08 615.127 382.237 615.163C381.394 615.237 380.532 615.273 379.652 615.273ZM394.282 612.468C395.565 612.468 396.757 612.12 397.857 611.423C398.957 610.727 399.837 609.792 400.497 608.618C401.157 607.445 401.487 606.143 401.487 604.713C401.487 603.357 401.304 602.257 400.937 601.413C400.57 600.533 400.13 599.837 399.617 599.323C399.14 598.773 398.7 598.37 398.297 598.113C397.93 597.857 397.325 597.582 396.482 597.288C395.675 596.995 394.63 596.848 393.347 596.848C392.54 596.848 391.88 597.032 391.367 597.398C390.854 597.765 390.597 598.187 390.597 598.663V608.838C390.597 610.122 390.909 611.057 391.532 611.643C392.192 612.193 393.109 612.468 394.282 612.468ZM392.907 594.703C393.824 594.703 394.722 594.593 395.602 594.373C396.482 594.153 397.362 593.75 398.242 593.163C398.572 592.907 398.975 592.375 399.452 591.568C399.965 590.762 400.222 589.588 400.222 588.048C400.222 586.692 400.02 585.482 399.617 584.418C399.25 583.355 398.59 582.53 397.637 581.943C396.72 581.32 395.437 581.008 393.787 581.008C392.577 581.008 391.734 581.21 391.257 581.613C390.817 582.017 390.597 582.622 390.597 583.428V592.723C390.597 593.493 390.872 594.025 391.422 594.318C391.972 594.575 392.467 594.703 392.907 594.703Z" fill="#F0EBFA"></path>
<path d="M360.458 615.77C358.808 615.77 357.36 615.587 356.113 615.22C354.866 614.89 353.766 614.505 352.813 614.065C352.446 613.882 352.043 613.607 351.603 613.24C351.2 612.874 350.943 612.452 350.833 611.975C350.65 610.875 350.448 609.757 350.228 608.62C350.045 607.447 349.953 606.42 349.953 605.54C349.953 605.284 350.1 605.064 350.393 604.88C350.686 604.697 350.98 604.605 351.273 604.605C351.493 604.605 351.915 605.394 352.538 606.97C353.271 608.804 354.353 610.325 355.783 611.535C357.25 612.745 358.808 613.35 360.458 613.35C362.218 613.35 363.648 612.892 364.748 611.975C365.848 611.059 366.655 609.885 367.168 608.455C367.718 607.025 367.993 605.559 367.993 604.055C367.993 602.845 367.81 601.672 367.443 600.535C367.076 599.399 366.49 598.464 365.683 597.73C364.876 596.96 363.795 596.575 362.438 596.575C362.181 596.575 361.906 596.612 361.613 596.685C361.356 596.722 361.063 596.777 360.733 596.85C360.403 596.887 360.036 596.942 359.633 597.015C359.23 597.089 358.735 597.125 358.148 597.125C357.855 597.125 357.488 597.089 357.048 597.015C356.645 596.942 356.278 596.795 355.948 596.575C355.655 596.355 355.508 596.025 355.508 595.585C355.508 594.962 355.82 594.504 356.443 594.21C357.066 593.917 357.58 593.77 357.983 593.77C358.57 593.77 359.028 593.789 359.358 593.825C359.725 593.862 360.036 593.917 360.293 593.99C360.586 594.027 360.898 594.082 361.228 594.155C361.558 594.192 361.998 594.21 362.548 594.21C363.465 594.21 364.216 593.899 364.803 593.275C365.39 592.615 365.83 591.79 366.123 590.8C366.453 589.774 366.618 588.729 366.618 587.665C366.618 586.529 366.416 585.429 366.013 584.365C365.61 583.265 364.931 582.367 363.978 581.67C363.061 580.937 361.815 580.57 360.238 580.57C358.368 580.57 356.901 581.194 355.838 582.44C354.775 583.65 353.968 585.429 353.418 587.775C353.345 588.142 353.125 588.49 352.758 588.82C352.428 589.114 352.171 589.26 351.988 589.26C351.731 589.26 351.511 589.114 351.328 588.82C351.181 588.49 351.108 588.179 351.108 587.885C351.108 587.005 351.145 586.125 351.218 585.245C351.291 584.365 351.42 583.357 351.603 582.22C351.676 581.854 351.786 581.542 351.933 581.285C352.116 581.029 352.318 580.882 352.538 580.845C353.345 580.699 354.06 580.497 354.683 580.24C355.306 579.947 355.93 579.672 356.553 579.415C357.213 579.159 357.928 578.939 358.698 578.755C359.505 578.572 360.476 578.48 361.613 578.48C363.593 578.48 365.481 578.792 367.278 579.415C369.075 580.002 370.523 580.919 371.623 582.165C372.76 583.412 373.328 585.044 373.328 587.06C373.328 589.04 372.833 590.654 371.843 591.9C370.89 593.11 369.588 594.045 367.938 594.705C367.791 594.742 367.7 594.834 367.663 594.98C367.663 595.09 367.755 595.182 367.938 595.255C368.965 595.585 370.065 596.099 371.238 596.795C372.448 597.455 373.456 598.409 374.263 599.655C375.106 600.902 375.528 602.589 375.528 604.715C375.528 606.622 375.088 608.272 374.208 609.665C373.328 611.022 372.155 612.159 370.688 613.075C369.221 613.992 367.59 614.67 365.793 615.11C364.033 615.55 362.255 615.77 360.458 615.77Z" fill="#F0EBFA"></path>
<path d="M326.427 615.77C323.934 615.77 321.551 615.349 319.277 614.505C317.004 613.625 314.987 612.397 313.227 610.82C311.504 609.207 310.129 607.3 309.102 605.1C308.112 602.864 307.617 600.389 307.617 597.675C307.617 595.182 308.021 592.799 308.827 590.525C309.671 588.215 310.899 586.162 312.512 584.365C314.162 582.569 316.179 581.139 318.562 580.075C320.982 579.012 323.769 578.48 326.922 578.48C329.416 578.48 331.781 578.92 334.017 579.8C336.291 580.644 338.307 581.872 340.067 583.485C341.827 585.062 343.202 586.969 344.192 589.205C345.219 591.405 345.732 593.862 345.732 596.575C345.732 599.032 345.311 601.415 344.467 603.725C343.661 606.035 342.432 608.089 340.782 609.885C339.169 611.682 337.152 613.112 334.732 614.175C332.349 615.239 329.581 615.77 326.427 615.77ZM327.362 613.35C329.672 613.35 331.597 612.764 333.137 611.59C334.714 610.417 335.887 608.785 336.657 606.695C337.464 604.569 337.867 602.13 337.867 599.38C337.867 597.034 337.629 594.76 337.152 592.56C336.676 590.36 335.942 588.399 334.952 586.675C333.962 584.915 332.716 583.522 331.212 582.495C329.746 581.469 327.986 580.955 325.932 580.955C323.622 580.955 321.679 581.542 320.102 582.715C318.562 583.889 317.407 585.52 316.637 587.61C315.867 589.7 315.482 592.12 315.482 594.87C315.482 597.217 315.721 599.49 316.197 601.69C316.674 603.89 317.389 605.87 318.342 607.63C319.332 609.39 320.561 610.784 322.027 611.81C323.531 612.837 325.309 613.35 327.362 613.35Z" fill="#F0EBFA"></path>
<path d="M275.669 615.219C275.339 615.219 275.046 615.146 274.789 614.999C274.533 614.889 274.404 614.724 274.404 614.504C274.404 613.954 274.863 613.587 275.779 613.404C277.173 613.111 278.163 612.707 278.749 612.194C279.336 611.681 279.629 610.819 279.629 609.609V585.409C279.629 584.016 279.391 582.989 278.914 582.329C278.474 581.669 277.594 581.192 276.274 580.899C275.761 580.789 275.394 580.642 275.174 580.459C274.954 580.239 274.844 580.019 274.844 579.799C274.844 579.542 274.954 579.359 275.174 579.249C275.431 579.102 275.761 579.029 276.164 579.029C277.044 579.029 277.851 579.047 278.584 579.084C279.354 579.084 280.088 579.102 280.784 579.139C281.481 579.176 282.196 579.194 282.929 579.194C283.736 579.194 284.488 579.157 285.184 579.084C285.918 579.011 286.651 578.937 287.384 578.864C288.154 578.791 289.034 578.754 290.024 578.754C294.388 578.754 297.871 579.671 300.474 581.504C303.078 583.337 304.379 585.867 304.379 589.094C304.379 591.367 303.903 593.476 302.949 595.419C302.033 597.326 300.603 598.866 298.659 600.039C296.753 601.212 294.333 601.799 291.399 601.799C290.483 601.799 289.786 601.671 289.309 601.414C288.833 601.121 288.594 600.809 288.594 600.479C288.594 600.259 288.704 600.076 288.924 599.929C289.181 599.746 289.401 599.654 289.584 599.654C289.914 599.654 290.226 599.691 290.519 599.764C290.849 599.801 291.326 599.819 291.949 599.819C293.673 599.819 294.974 598.939 295.854 597.179C296.771 595.419 297.229 593.072 297.229 590.139C297.229 586.912 296.569 584.566 295.249 583.099C293.966 581.596 292.224 580.844 290.024 580.844C288.998 580.844 288.191 581.064 287.604 581.504C287.054 581.907 286.779 582.567 286.779 583.484L286.724 609.279C286.724 610.489 287.018 611.406 287.604 612.029C288.228 612.616 289.273 613.074 290.739 613.404C291.216 613.477 291.564 613.606 291.784 613.789C292.004 613.936 292.114 614.156 292.114 614.449C292.114 614.706 292.004 614.889 291.784 614.999C291.601 615.109 291.308 615.164 290.904 615.164C290.061 615.164 289.199 615.127 288.319 615.054C287.439 615.017 286.578 614.981 285.734 614.944C284.928 614.907 284.158 614.889 283.424 614.889C282.618 614.889 281.774 614.907 280.894 614.944C280.051 614.981 279.189 615.036 278.309 615.109C277.429 615.182 276.549 615.219 275.669 615.219Z" fill="#F0EBFA"></path>
</svg>